<?xml version="1.0" encoding="UTF-8"?>
<!DOCTYPE svg PUBLIC "-//W3C//DTD SVG 1.1//EN" "http://www.w3.org/Graphics/SVG/1.1/DTD/svg11.dtd">
<!-- Creator: CorelDRAW X8 -->
<svg xmlns="http://www.w3.org/2000/svg" xml:space="preserve" width="8.5in" height="11in" version="1.1" style="shape-rendering:geometricPrecision; text-rendering:geometricPrecision; image-rendering:optimizeQuality; fill-rule:evenodd; clip-rule:evenodd"
viewBox="0 0 8500 11000"
 xmlns:xlink="http://www.w3.org/1999/xlink">
 <defs>
  <style type="text/css">
   <![CDATA[
    .fil9 {fill:#FEFEFE;fill-rule:nonzero}
    .fil3 {fill:#FFCC29;fill-rule:nonzero}
    .fil13 {fill:#FEC537;fill-rule:nonzero}
    .fil2 {fill:#F79533;fill-rule:nonzero}
    .fil1 {fill:#F69033;fill-rule:nonzero}
    .fil7 {fill:#F05942;fill-rule:nonzero}
    .fil8 {fill:#F05744;fill-rule:nonzero}
    .fil14 {fill:#FBD15B;fill-rule:nonzero}
    .fil18 {fill:#E95F3A;fill-rule:nonzero}
    .fil12 {fill:#DE5039;fill-rule:nonzero}
    .fil17 {fill:#E9B934;fill-rule:nonzero}
    .fil11 {fill:#DCB650;fill-rule:nonzero}
    .fil10 {fill:#D8A93A;fill-rule:nonzero}
    .fil15 {fill:#ACD483;fill-rule:nonzero}
    .fil16 {fill:#8CC869;fill-rule:nonzero}
    .fil4 {fill:#747784;fill-rule:nonzero}
    .fil5 {fill:#62636E;fill-rule:nonzero}
    .fil0 {fill:#65AA4F;fill-rule:nonzero}
    .fil6 {fill:#45464C;fill-rule:nonzero}
   ]]>
  </style>
 </defs>
 <g id="Layer_x0020_1">
  <metadata id="CorelCorpID_0Corel-Layer"/>
  <g id="_2952677021760">
   <path class="fil0" d="M4418 8146l-3499 2403c-218,-384 -116,-892 229,-1136l2874 -1961 396 694z"/>
   <path class="fil1" d="M4598 8279l-4099 1590c-134,-430 71,-898 457,-1047l3400 -1321 242 778z"/>
   <path class="fil2" d="M6351 328c-1,0 -1,0 -2,0l0 -1 -1991 0c0,555 404,1004 902,1004l1089 0 0 0c1,0 1,-1 2,-1l0 -1002z"/>
   <path class="fil3" d="M6386 4373c-14,669 -507,1207 -1112,1207 -606,0 -1098,-538 -1113,-1207l0 0 0 -1570c0,-1367 996,-2476 2226,-2476l0 4046 -1 0z"/>
   <path class="fil4" d="M6387 1958l1610 0c0,-944 -617,-1709 -1379,-1709l-231 0 0 1709z"/>
   <path class="fil5" d="M6387 1958l1103 0c0,-647 -423,-1171 -945,-1171l-158 0 0 1171z"/>
   <path class="fil6" d="M6387 1958l617 0c0,361 -237,654 -529,654l-88 0 0 -654z"/>
   <path class="fil7" d="M6543 966c0,101 -74,183 -166,183l0 0c-91,0 -165,-82 -165,-183l0 -620c0,-102 74,-184 165,-184l0 0c92,0 166,82 166,184l0 620z"/>
   <path class="fil8" d="M6146 1468c0,350 -278,634 -622,634 -343,0 -621,-284 -621,-634 0,-349 278,-633 621,-633 344,0 622,284 622,633z"/>
   <path class="fil6" d="M5776 1468c0,142 -113,257 -252,257 -139,0 -252,-115 -252,-257 0,-142 113,-256 252,-256 139,0 252,114 252,256z"/>
   <path class="fil9" d="M5691 1414c0,52 -38,94 -85,94 -46,0 -84,-42 -84,-94 0,-52 38,-94 84,-94 47,0 85,42 85,94z"/>
   <path class="fil10" d="M4391 10563c23,70 -8,147 -71,173l0 0c-62,26 -131,-9 -154,-79l-482 -1428c-23,-69 8,-147 70,-173l0 0c63,-25 132,10 155,79l482 1428z"/>
   <path class="fil11" d="M5519 10473l-1637 0c-175,0 -316,158 -316,352l2270 0c0,-194 -142,-352 -317,-352z"/>
   <path class="fil12" d="M4310 9143c85,251 -29,530 -254,623l0 0c-226,94 -477,-33 -561,-283l-756 -2640c-84,-251 30,-530 255,-624l0 0c225,-93 476,33 560,284l756 2640z"/>
   <path class="fil13" d="M4814 10563c24,70 -8,147 -70,173l0 0c-62,26 -132,-9 -155,-79l-482 -1428c-23,-69 9,-147 71,-173l0 0c62,-25 131,10 155,79l481 1428z"/>
   <path class="fil7" d="M4637 9143c84,251 -30,530 -255,623l0 0c-226,94 -476,-33 -561,-283l-756 -2640c-84,-251 30,-530 255,-624l0 0c225,-93 476,33 561,284l756 2640z"/>
   <path class="fil14" d="M5942 10473l-1636 0c-175,0 -317,158 -317,352l2270 0c0,-194 -142,-352 -317,-352z"/>
   <path class="fil0" d="M7203 5282l-3258 -9 0 1c-875,21 -1579,814 -1581,1791 -3,978 698,1776 1572,1802l0 1 25 0c1786,5 3237,-1600 3242,-3586z"/>
   <path class="fil1" d="M5407 5601c12,547 414,986 909,986 495,0 898,-439 910,-986l0 0 0 -16c0,-1118 -815,-2024 -1819,-2024l0 2040 0 0z"/>
   <path class="fil15" d="M5710 4155c-14,-669 -507,-1207 -1112,-1207 -606,0 -1098,538 -1113,1207l0 0 0 19c0,1367 996,2476 2226,2476l0 -2495 -1 0z"/>
   <path class="fil16" d="M2864 4816c519,-802 1522,-1000 2258,-438 737,561 933,1672 449,2500l1 0 -304 493c-1024,1664 -3068,2088 -4564,949l2159 -3505 1 1z"/>
   <path class="fil17" d="M2890 5504c356,-614 1090,-804 1654,-420 565,383 748,1196 419,1829l0 0 -207 378c-700,1273 -2197,1675 -3342,896l1475 -2683 1 0z"/>
   <path class="fil3" d="M3370 5162c356,-615 1091,-804 1655,-420 564,383 747,1196 418,1829l1 0 -208 378c-700,1273 -2196,1675 -3342,896l1475 -2683 1 0z"/>
   <path class="fil7" d="M5315 4320c-538,-410 -1270,-266 -1650,320l-1 -1 -1578 2562c1094,833 2587,522 3336,-694l222 -360 -1 0c354,-605 211,-1417 -328,-1827z"/>
   <path class="fil18" d="M6651 3295c0,149 -109,270 -243,270l0 0c-134,0 -243,-121 -243,-270l0 -468c0,-150 109,-270 243,-270l0 0c134,0 243,120 243,270l0 468z"/>
  </g>
 </g>
</svg>
