<?xml version="1.0" encoding="UTF-8"?>
<!DOCTYPE svg PUBLIC "-//W3C//DTD SVG 1.1//EN" "http://www.w3.org/Graphics/SVG/1.1/DTD/svg11.dtd">
<!-- Creator: CorelDRAW X8 -->
<svg xmlns="http://www.w3.org/2000/svg" xml:space="preserve" width="8.5in" height="11in" version="1.1" style="shape-rendering:geometricPrecision; text-rendering:geometricPrecision; image-rendering:optimizeQuality; fill-rule:evenodd; clip-rule:evenodd"
viewBox="0 0 8500 11000"
 xmlns:xlink="http://www.w3.org/1999/xlink">
 <defs>
  <style type="text/css">
   <![CDATA[
    .fil0 {fill:#F37B74;fill-rule:nonzero}
    .fil1 {fill:#ED2F70;fill-rule:nonzero}
    .fil6 {fill:#E1DEE6;fill-rule:nonzero}
    .fil7 {fill:#B4509C;fill-rule:nonzero}
    .fil3 {fill:#A665A8;fill-rule:nonzero}
    .fil5 {fill:#52AF58;fill-rule:nonzero}
    .fil2 {fill:#469D85;fill-rule:nonzero}
    .fil4 {fill:#38323D;fill-rule:nonzero}
   ]]>
  </style>
 </defs>
 <g id="Layer_x0020_1">
  <metadata id="CorelCorpID_0Corel-Layer"/>
  <g id="_2952555088224">
   <path class="fil0" d="M2145 3164c-574,-518 -1078,-1046 -1304,-1466l-95 944 329 174 -390 113 -12 437 500 12 -532 305 155 341 0 0 589 -119 -437 456 210 464 0 0 553 -440 -419 735 297 657 480 -489 -92 581 451 106 284 -470 97 560 1041 246 138 -165c-1719,-777 -1888,-2218 -1843,-2982z"/>
   <path class="fil1" d="M2525 3053c-523,-570 -977,-1142 -1163,-1581l-182 931 312 204 -399 76 -53 434 497 59 -558 254 122 354 0 0 599 -64 -478 414 166 481 0 0 591 -387 -485 693 235 682 523 -442 -145 569 438 148 327 -442 44 567 1014 342 152 -151c-1638,-934 -1672,-2384 -1557,-3141z"/>
   <path class="fil2" d="M2774 2957c-175,746 -255,2194 1304,3254l919 -774c0,0 -1256,-1246 -2223,-2480z"/>
   <path class="fil3" d="M2774 2957c-477,-608 -884,-1214 -1035,-1667l-255 914 295 227 -403 45 -87 428 490 98 -576 209 94 363 0 0 601 -16 -508 374 127 493 0 0 620 -339 -539 652 181 699 556 -400 -190 556 426 182 360 -414 0 568 983 421 164 -139c-1559,-1060 -1479,-2508 -1304,-3254z"/>
   <polygon class="fil4" points="6466,5438 6864,5437 8652,6114 6527,5679 "/>
   <path class="fil2" d="M5295 4961l-448 343c327,1065 2017,133 2017,133 -496,-1027 -1569,-476 -1569,-476z"/>
   <path class="fil5" d="M5234 5750c-174,-72 -314,-210 -387,-446l-1916 1464 673 372 0 0c0,0 261,-973 1630,-1390z"/>
   <path class="fil6" d="M5376 5792c-49,-10 -97,-24 -142,-42 -1369,417 -1630,1390 -1630,1390l0 0 499 275 1356 -971c-56,-174 -86,-358 -86,-549 0,-34 1,-69 3,-103z"/>
   <path class="fil7" d="M5376 5792c-2,34 -3,69 -3,103 0,191 30,375 86,549l1405 -1007c0,0 -875,482 -1488,355z"/>
   <path class="fil7" d="M3042 8651l68 1142 417 -552 576 552 99 -761 696 209 -259 -685 -83 -178c-858,697 -1514,273 -1514,273z"/>
   <path class="fil4" d="M2931 6768l0 0 111 1883c0,0 656,424 1514,-273l-453 -963 -22 -76c-139,-473 -666,-735 -1150,-571z"/>
   <path class="fil4" d="M6160 5233c0,44 -38,81 -85,81 -47,0 -85,-37 -85,-81 0,-45 38,-82 85,-82 47,0 85,37 85,82z"/>
  </g>
 </g>
</svg>
