<?xml version="1.0" encoding="UTF-8"?>
<!DOCTYPE svg PUBLIC "-//W3C//DTD SVG 1.1//EN" "http://www.w3.org/Graphics/SVG/1.1/DTD/svg11.dtd">
<!-- Creator: CorelDRAW X8 -->
<svg xmlns="http://www.w3.org/2000/svg" xml:space="preserve" width="7.09722in" height="7.09722in" version="1.1" style="shape-rendering:geometricPrecision; text-rendering:geometricPrecision; image-rendering:optimizeQuality; fill-rule:evenodd; clip-rule:evenodd"
viewBox="0 0 7097 7097"
 xmlns:xlink="http://www.w3.org/1999/xlink">
 <defs>
  <style type="text/css">
   <![CDATA[
    .fil0 {fill:#F37B74;fill-rule:nonzero}
    .fil1 {fill:#ED2F70;fill-rule:nonzero}
    .fil6 {fill:#E1DEE6;fill-rule:nonzero}
    .fil7 {fill:#B4509C;fill-rule:nonzero}
    .fil3 {fill:#A665A8;fill-rule:nonzero}
    .fil5 {fill:#52AF58;fill-rule:nonzero}
    .fil2 {fill:#469D85;fill-rule:nonzero}
    .fil4 {fill:#38323D;fill-rule:nonzero}
   ]]>
  </style>
 </defs>
 <g id="Layer_x0020_1">
  <metadata id="CorelCorpID_0Corel-Layer"/>
  <path class="fil0" d="M959 4446c-198,-178 -371,-359 -449,-504l-33 325 114 60 -134 38 -5 151 172 4 -183 105 53 117 0 0 203 -41 -150 157 72 160 0 0 190 -151 -144 252 103 226 165 -168 -32 200 155 37 98 -162 33 193 358 84 48 -56c-591,-268 -650,-764 -634,-1027z"/>
  <path class="fil1" d="M1090 4408c-180,-196 -336,-393 -401,-544l-62 321 107 70 -137 26 -18 149 171 20 -192 88 42 122 0 0 206 -22 -165 142 57 166 0 0 204 -133 -167 238 81 235 180 -153 -50 196 151 51 112 -152 15 195 349 118 52 -52c-563,-322 -575,-820 -535,-1081z"/>
  <path class="fil2" d="M1175 4375c-60,257 -88,755 449,1120l316 -267c0,0 -432,-428 -765,-853z"/>
  <path class="fil3" d="M1175 4375c-164,-209 -304,-418 -356,-573l-88 314 102 78 -139 16 -30 147 169 34 -198 72 32 124 0 0 207 -5 -175 129 44 169 0 0 213 -116 -185 224 62 240 191 -137 -65 191 146 63 124 -143 0 196 339 145 56 -48c-537,-365 -509,-863 -449,-1120z"/>
  <polygon class="fil4" points="2446,5229 2583,5228 3198,5462 2466,5312 "/>
  <path class="fil2" d="M2043 5065l-154 118c112,366 694,45 694,45 -171,-353 -540,-163 -540,-163z"/>
  <path class="fil5" d="M2022 5336c-60,-25 -108,-72 -133,-153l-660 504 232 127 0 0c0,0 90,-334 561,-478z"/>
  <path class="fil6" d="M2071 5351c-17,-4 -34,-8 -49,-15 -471,144 -561,478 -561,478l0 0 172 95 466 -334c-19,-60 -29,-123 -29,-189 0,-12 0,-24 1,-35z"/>
  <path class="fil7" d="M2071 5351c-1,11 -1,23 -1,35 0,66 10,129 29,189l484 -347c0,0 -302,166 -512,123z"/>
  <path class="fil7" d="M1268 6334l23 393 143 -190 199 190 34 -262 239 72 -89 -235 -29 -61c-295,239 -520,93 -520,93z"/>
  <path class="fil4" d="M1229 5687l0 0 39 647c0,0 225,146 520,-93l-155 -332 -8 -26c-48,-163 -229,-253 -396,-196z"/>
  <path class="fil4" d="M2340 5158c0,16 -13,28 -29,28 -16,0 -29,-12 -29,-28 0,-15 13,-28 29,-28 16,0 29,13 29,28z"/>
 </g>
</svg>
